<svg xmlns="http://www.w3.org/2000/svg" viewBox="0 0 24 24" width="24" height="24">
  <circle cx="12" cy="12" r="12" fill="#25D366" />
  <path d="M16.6 7.7c-1.5-1.5-3.5-2.3-5.6-2.3-4.3 0-7.9 3.5-7.9 7.9 0 1.4.4 2.8 1.1 4l-1.2 4.2 4.3-1.1c1.2.6 2.5 1 3.8 1 4.3 0 7.9-3.5 7.9-7.9 0-2.1-.8-4.1-2.3-5.6l-.1-.2zm1.1 10.5c-.3.9-.9 1.6-1.6 2.1-.7.5-1.5.7-2.3.8-1.1.1-2.1-.1-3.1-.5-.9-.4-1.7-.9-2.4-1.6L8 19c-.7-.6-1.2-1.4-1.7-2.2-.4-1-.6-2-.5-3.1.1-.9.3-1.7.8-2.4.5-.7 1.3-1.4 2.1-1.6 1-.3 2.1 0 2.9.7.3.3.7.8.5 1.2-.1.3-.7 1.8-.9 2-.2.2-.3.2-.5.1h-.2c-.2-.1-.3-.1-.4-.2v-.1c-.2-.3-.8-1-.9-1.2-.1-.2-.2-.1-.3 0-.2.1-.5.3-.7.5-.2.2-.3.5-.3.8 0 .2.2.6.3.8.1.2.6.9 1.2 1.5.7.6 1.4 1 1.8 1.1.4.1.7.1.9-.1.1-.1.2-.2.3-.3v-.1c.1-.2.3-.5.5-.5s.4 0 .5.1c.2.1 1.8.9 2.1 1 .3.1.5.2.6.3 0 .3 0 .5-.1.7z" fill="white" />
</svg>