<?xml version="1.0" encoding="UTF-8"?>
<svg width="512" height="512" viewBox="0 0 512 512" fill="none" xmlns="http://www.w3.org/2000/svg">
  <rect width="512" height="512" rx="128" fill="#25D366"/>
  <path fill-rule="evenodd" clip-rule="evenodd" d="M409.879 102.119C365.372 57.6133 307.349 33.6053 246.006 33.6053C119.34 33.6053 16.1533 136.792 16.1533 263.459C16.1533 299.726 25.1213 335.059 41.9693 366.526L13.6133 480.66L130.841 452.727C161.178 467.976 195.445 476.046 230.293 476.046H230.327C356.96 476.046 460.18 372.859 460.18 246.192C460.18 184.849 454.386 146.625 409.879 102.119ZM246.006 441.611C214.574 441.611 183.84 433.743 156.941 418.528L150.71 414.894L84.3533 431.282L101.019 366.458L96.9533 359.997C80.1773 332.054 71.5253 298.252 71.5253 263.458C71.5253 167.359 149.906 88.9787 246.04 88.9787C295.793 88.9787 342.584 109.12 378.041 144.61C413.499 180.101 428.146 226.892 428.146 276.645C428.146 372.757 342.105 441.611 246.006 441.611ZM348.821 311.479C343.026 308.645 316.128 295.365 310.786 293.397C305.444 291.429 301.571 290.445 297.698 296.232C293.825 302.019 283.14 314.31 279.733 318.183C276.327 322.056 272.92 322.548 267.125 319.714C261.33 316.88 243.663 311.118 222.548 292.208C206.01 277.436 194.88 259.289 191.474 253.502C188.067 247.715 191.104 244.578 194.014 241.682C196.651 239.079 199.893 234.959 202.762 231.552C205.631 228.145 206.615 225.693 208.583 221.82C210.551 217.947 209.567 214.54 208.091 211.706C206.615 208.872 195.462 181.94 190.597 170.347C185.866 159.18 181.066 160.757 177.455 160.553C173.932 160.351 170.059 160.317 166.186 160.317C162.313 160.317 156.013 161.793 150.671 167.58C145.329 173.367 131.058 186.646 131.058 213.578C131.058 240.511 150.671 266.45 153.54 270.323C156.409 274.196 194.846 332.66 252.836 358.078C267.742 364.601 279.398 368.339 288.56 371.139C303.973 375.721 317.943 375.046 329.096 373.536C341.466 371.852 363.254 360.215 368.118 346.62C372.982 333.025 372.982 321.432 371.506 318.598C370.03 315.764 366.157 314.31 360.362 311.476L348.821 311.479Z" fill="white"/>
</svg>