<svg xmlns="http://www.w3.org/2000/svg" viewBox="0 0 128 128" width="128" height="128">
  <!-- Background Circle -->
  <circle cx="64" cy="64" r="64" fill="#25D366"/>
  
  <!-- Phone Icon (simplified) -->
  <path fill="#ffffff" d="M92.8 83.2c-1.5-1.5-6.9-3.4-6.9-3.4-1.7-0.6-3.4-0.6-4.6 0.4-1.1 1-2.1 1.9-3.4 1.5-3.4-1-10.7-8.3-11.8-11.8-0.4-1.3 0.6-2.3 1.5-3.4 1-1.1 1-2.9 0.4-4.6 0 0-1.9-5.3-3.4-6.9-0.8-0.8-2.1-1.5-3.8-1.5-1.5 0-8.8 3.4-8.8 3.4-4.2 2.3-4.2 8.4-4.2 8.4 0.4 7.6 5.7 17.2 14.1 25.6s18 13.7 25.6 14.1c0 0 6.1 0 8.4-4.2 0 0 3.4-7.3 3.4-8.8 0-1.7-0.8-3-1.5-3.8z"/>
  
  <!-- Shopping Bag Icon -->
  <path fill="#ffffff" d="M35 30h58c1.7 0 3 1.3 3 3v12c0 1.7-1.3 3-3 3H35c-1.7 0-3-1.3-3-3V33c0-1.7 1.3-3 3-3z"/>
  <path fill="#ffffff" d="M45 30V25c0-5.5 4.5-10 10-10h18c5.5 0 10 4.5 10 10v5"/>
  
  <!-- Store Icon -->
  <rect x="39" y="52" width="50" height="28" rx="2" ry="2" fill="#ffffff"/>
  <rect x="44" y="57" width="10" height="10" rx="1" ry="1" fill="#25D366"/>
  <rect x="59" y="57" width="10" height="10" rx="1" ry="1" fill="#25D366"/>
  <rect x="74" y="57" width="10" height="10" rx="1" ry="1" fill="#25D366"/>
  <rect x="44" y="70" width="40" height="5" rx="1" ry="1" fill="#25D366"/>
</svg>