<?xml version="1.0" encoding="UTF-8"?>
<svg width="48" height="48" viewBox="0 0 48 48" fill="none" xmlns="http://www.w3.org/2000/svg">
  <rect width="48" height="48" rx="10" fill="#25D366"/>
  <path d="M35 23.5C35 29.8513 29.8513 35 23.5 35C21.1938 35 19.0406 34.3375 17.2106 33.1875L13 35L14.8563 30.8875C13.5125 28.985 12.75 26.6806 12.75 24.25C12.75 17.8988 17.8988 12.75 24.25 12.75C30.6012 12.75 35.75 17.8988 35.75 24.25C35.75 24.0031 35.0125 23.5 35 23.5Z" fill="white"/>
  <path d="M31 24.0344C31 24.3469 30.9406 24.6531 30.8281 24.9469C30.5719 25.6031 29.75 26.1656 28.8844 26.1656C28.5969 26.1656 28.3031 26.1062 28.0094 25.9937C26.3594 25.3375 24.6562 24.625 23.0062 23.7594C21.8531 23.1031 20.7594 22.3281 19.7781 21.4031C19.175 20.8406 18.6125 20.2188 18.1094 19.5625C17.7375 19.0656 17.3594 18.5625 17.0375 18.0219C16.7219 17.4906 16.4656 16.9281 16.2656 16.3594C16.0656 15.7906 15.975 15.2219 15.975 14.6594C15.975 14.2812 16.0281 13.9031 16.1344 13.5375C16.2469 13.1125 16.4125 12.7156 16.6594 12.3375C16.9656 11.8406 17.3594 11.5406 17.7969 11.3969C17.9969 11.3375 18.1969 11.3062 18.3906 11.3062C18.5281 11.3062 18.6594 11.3125 18.7844 11.325C18.9156 11.3375 19.0344 11.3125 19.1531 11.4312C19.3406 11.6062 19.4594 11.8719 19.5844 12.0969C19.7344 12.3719 19.9031 12.6344 20.0531 12.9C20.175 13.1 20.3094 13.2938 20.425 13.5C20.625 13.8781 20.8125 14.0656 20.5125 14.4125C20.35 14.6031 20.2344 14.8125 20.0656 14.9812C19.925 15.125 19.725 15.2281 19.5844 15.3656C19.3781 15.5625 19.1531 15.75 18.9844 15.9812C18.825 16.1906 18.6844 16.4125 18.6844 16.6719C18.6844 16.9625 18.8594 17.2344 18.9844 17.4719C19.8125 19.0031 20.8781 20.2875 22.2469 21.2625C22.8219 21.6656 23.435 22.025 24.1 22.3219C24.3219 22.4219 24.5438 22.5094 24.7719 22.5906C25.0656 22.6969 25.3125 22.7344 25.5781 22.55C25.8219 22.3844 26.0375 22.1719 26.2469 21.9625C26.4625 21.7469 26.6562 21.5375 26.9031 21.3781C27.0469 21.2844 27.1906 21.1969 27.3531 21.1281C27.5156 21.0594 27.6781 21.0094 27.8469 21.0094C28.0031 21.0094 28.15 21.0344 28.2969 21.0906C28.5656 21.1969 28.6312 21.2219 28.8594 21.3469C29.0875 21.4719 29.3156 21.6031 29.5375 21.7344C29.7531 21.8594 29.975 21.9844 30.1906 22.1156C30.3969 22.2406 30.5969 22.3719 30.7719 22.5344C30.9031 22.6594 31 22.7969 31 22.9844V24.0344Z" fill="#25D366"/>
  <path d="M28 16H18C17.4477 16 17 16.4477 17 17V30C17 30.5523 17.4477 31 18 31H28C28.5523 31 29 30.5523 29 30V17C29 16.4477 28.5523 16 28 16Z" fill="white"/>
  <path d="M26 19H20C19.4477 19 19 19.4477 19 20V22C19 22.5523 19.4477 23 20 23H26C26.5523 23 27 22.5523 27 22V20C27 19.4477 26.5523 19 26 19Z" fill="#25D366"/>
  <path d="M26 25H20C19.4477 25 19 25.4477 19 26V28C19 28.5523 19.4477 29 20 29H26C26.5523 29 27 28.5523 27 28V26C27 25.4477 26.5523 25 26 25Z" fill="#25D366"/>
</svg>